P3
3
3
255
21 45 78 29 1 78 48 45 224 
97 45 64 158 45 19 42 45 0 
129 45 234 248 40 129 176 45 2 